<svg width="11" height="10" viewBox="0 0 11 10" fill="none" xmlns="http://www.w3.org/2000/svg">
<path d="M3.33333 0.0957031C1.83779 0.0957031 0.625 1.30849 0.625 2.80404V7.13737C0.625 8.63291 1.83779 9.8457 3.33333 9.8457H7.66667C9.16221 9.8457 10.375 8.63291 10.375 7.13737V2.80404C10.375 1.30849 9.16221 0.0957031 7.66667 0.0957031H3.33333ZM8.75 1.17904C9.049 1.17904 9.29167 1.4217 9.29167 1.7207C9.29167 2.0197 9.049 2.26237 8.75 2.26237C8.451 2.26237 8.20833 2.0197 8.20833 1.7207C8.20833 1.4217 8.451 1.17904 8.75 1.17904ZM5.5 2.26237C6.99554 2.26237 8.20833 3.47516 8.20833 4.9707C8.20833 6.46625 6.99554 7.67904 5.5 7.67904C4.00446 7.67904 2.79167 6.46625 2.79167 4.9707C2.79167 3.47516 4.00446 2.26237 5.5 2.26237ZM5.5 3.3457C5.06902 3.3457 4.6557 3.51691 4.35095 3.82165C4.0462 4.1264 3.875 4.53973 3.875 4.9707C3.875 5.40168 4.0462 5.81501 4.35095 6.11975C4.6557 6.4245 5.06902 6.5957 5.5 6.5957C5.93098 6.5957 6.3443 6.4245 6.64905 6.11975C6.9538 5.81501 7.125 5.40168 7.125 4.9707C7.125 4.53973 6.9538 4.1264 6.64905 3.82165C6.3443 3.51691 5.93098 3.3457 5.5 3.3457Z" fill="white"/>
</svg>
