<svg width="11" height="12" viewBox="0 0 11 12" fill="none" xmlns="http://www.w3.org/2000/svg">
<path d="M6.12383 11.8395C5.22894 11.8395 4.43788 11.7167 3.75063 11.471C3.06338 11.2283 2.4858 10.8701 2.01788 10.3963C1.54997 9.92253 1.19611 9.34203 0.9563 8.65478C0.716494 7.96753 0.596591 7.18085 0.596591 6.29473C0.596591 5.43787 0.717956 4.67166 0.960687 3.9961C1.20634 3.32055 1.56166 2.74736 2.02665 2.27652C2.49457 1.80275 3.06192 1.44158 3.72869 1.193C4.3984 0.944424 5.15583 0.820134 6.001 0.820134C6.82278 0.820134 7.5422 0.95466 8.15926 1.22371C8.77925 1.48984 9.29688 1.85101 9.71215 2.30723C10.1303 2.76052 10.4433 3.27084 10.6509 3.83818C10.8615 4.40553 10.9667 4.99042 10.9667 5.59286C10.9667 6.01691 10.9463 6.44681 10.9053 6.88255C10.8644 7.3183 10.7781 7.71895 10.6465 8.08451C10.5149 8.44714 10.3117 8.73959 10.0368 8.96185C9.76479 9.18411 9.39631 9.29524 8.93132 9.29524C8.7266 9.29524 8.50142 9.26307 8.25577 9.19873C8.01011 9.13439 7.79224 9.02765 7.60215 8.8785C7.41206 8.72935 7.29947 8.52903 7.26437 8.27752H7.21173C7.14154 8.44714 7.03334 8.60799 6.88712 8.76006C6.74382 8.91213 6.55519 9.0335 6.32123 9.12415C6.0902 9.21481 5.80799 9.25429 5.4746 9.24259C5.09442 9.22797 4.75957 9.14316 4.47005 8.98817C4.18052 8.83025 3.93779 8.61676 3.74185 8.34771C3.54884 8.07573 3.40262 7.76135 3.30318 7.40457C3.20668 7.04486 3.15842 6.65737 3.15842 6.24209C3.15842 5.84729 3.21691 5.48612 3.33389 5.15858C3.45087 4.83104 3.61318 4.54444 3.82081 4.29879C4.03138 4.05313 4.27703 3.85719 4.55778 3.71097C4.84145 3.56182 5.14706 3.4697 5.4746 3.43461C5.76705 3.40536 6.03317 3.41852 6.27298 3.47409C6.51278 3.52673 6.71019 3.60715 6.86518 3.71536C7.02018 3.82064 7.11815 3.93761 7.15909 4.06629H7.21173V3.57498H8.14171V7.54056C8.14171 7.78621 8.21044 8.00262 8.34789 8.18979C8.48534 8.37695 8.68566 8.47054 8.94886 8.47054C9.24716 8.47054 9.47527 8.36818 9.63319 8.16347C9.79403 7.95875 9.9037 7.64291 9.96219 7.21594C10.0236 6.78897 10.0543 6.24209 10.0543 5.57532C10.0543 5.18344 10.0002 4.79741 9.892 4.41723C9.78672 4.03412 9.62588 3.67587 9.40947 3.34249C9.19598 3.0091 8.92547 2.71519 8.59793 2.46076C8.27039 2.20633 7.88582 2.00747 7.44423 1.86417C7.00556 1.71795 6.50694 1.64483 5.94836 1.64483C5.26111 1.64483 4.64551 1.75158 4.10156 1.96506C3.56054 2.17562 3.09993 2.48416 2.71975 2.89066C2.3425 3.29423 2.05444 3.78554 1.85557 4.36459C1.65963 4.94071 1.56166 5.59579 1.56166 6.32983C1.56166 7.07557 1.65963 7.73796 1.85557 8.317C2.05444 8.89605 2.34688 9.38443 2.73291 9.78216C3.12187 10.1799 3.60294 10.4811 4.17614 10.6858C4.74933 10.8935 5.41026 10.9973 6.15892 10.9973C6.48062 10.9973 6.79792 10.9666 7.11084 10.9052C7.42376 10.8437 7.70012 10.7765 7.93992 10.7034C8.17973 10.6303 8.35227 10.5762 8.45755 10.5411L8.70321 11.3482C8.52189 11.4242 8.28501 11.5003 7.99256 11.5763C7.70304 11.6524 7.39305 11.7152 7.06258 11.7649C6.73504 11.8147 6.42213 11.8395 6.12383 11.8395ZM5.61497 8.34771C6.00685 8.34771 6.32416 8.26875 6.56689 8.11083C6.80962 7.95291 6.98655 7.71456 7.09768 7.39579C7.20881 7.07703 7.26437 6.67491 7.26437 6.18945C7.26437 5.69814 7.20296 5.31504 7.08013 5.04014C6.9573 4.76524 6.77599 4.57222 6.53618 4.46109C6.29637 4.34996 6.001 4.2944 5.65007 4.2944C5.31668 4.2944 5.03154 4.38213 4.79466 4.5576C4.5607 4.73014 4.38085 4.96118 4.2551 5.2507C4.13227 5.5373 4.07086 5.85022 4.07086 6.18945C4.07086 6.56378 4.12057 6.91618 4.22 7.24665C4.31944 7.57419 4.48174 7.84031 4.70693 8.04503C4.93211 8.24681 5.23479 8.34771 5.61497 8.34771Z" fill="white"/>
</svg>
