<svg width="12" height="11" viewBox="0 0 12 11" fill="none" xmlns="http://www.w3.org/2000/svg">
<path fill-rule="evenodd" clip-rule="evenodd" d="M1.14653 4.89053C4.12492 3.5929 6.11098 2.73742 7.10471 2.3241C9.94199 1.14397 10.5315 0.93897 10.9158 0.932201C11.0003 0.930712 11.1893 0.951658 11.3117 1.05098C11.4151 1.13485 11.4435 1.24815 11.4571 1.32767C11.4707 1.40718 11.4877 1.58832 11.4742 1.72987C11.3205 3.34537 10.6552 7.26578 10.3167 9.07516C10.1735 9.8408 9.89152 10.0975 9.61848 10.1226C9.02519 10.1772 8.57464 9.73051 8 9.35382C7.10082 8.76437 6.5928 8.39748 5.71998 7.82228C4.71127 7.15753 5.36516 6.79223 5.94005 6.19512C6.09049 6.0389 8.70459 3.66115 8.75517 3.44545C8.7615 3.41847 8.76737 3.31792 8.70766 3.26482C8.64789 3.21172 8.55972 3.22988 8.49612 3.24432C8.40591 3.26479 6.96944 4.21425 4.18665 6.09269C3.7789 6.37268 3.40958 6.50913 3.07869 6.50198C2.7139 6.49411 2.01219 6.2957 1.49054 6.12615C0.850715 5.91817 0.342197 5.80821 0.386477 5.45499C0.409541 5.27102 0.662896 5.08286 1.14653 4.89053Z" fill="white"/>
</svg>
